<svg width="55" height="31" viewBox="0 0 55 31" fill="none" xmlns="http://www.w3.org/2000/svg">
<g clip-path="url(#clip0_211_723)">
<path d="M54.9957 10.9155C55.0015 10.8738 55.0015 10.8316 54.9957 10.7899C55.0011 10.756 55.0011 10.7213 54.9957 10.6873L54.5883 7.75462C54.5295 7.40377 54.3723 7.07584 54.1344 6.80751L54.0645 6.72763L53.9365 6.6021L46.8829 0.645525L47.0808 0.839528C46.9189 0.649644 46.7157 0.497763 46.4861 0.395072C46.2565 0.29238 46.0062 0.241487 45.7539 0.246148H43.6122C43.2639 0.239383 42.9236 0.347935 42.6461 0.554251C42.3547 0.349178 42.0038 0.241181 41.6451 0.246148H39.5034C39.2225 0.24168 38.9454 0.310023 38.7001 0.444278C38.4549 0.578532 38.2501 0.773931 38.1067 1.01068C37.8855 1.34884 37.8023 1.75626 37.8738 2.15179L38.1416 4.00038C37.9642 3.90181 37.7635 3.85067 37.5596 3.85205H27.1887C26.8166 3.85434 26.4531 3.96126 26.1411 4.16014C25.8395 4.34525 25.5973 4.61032 25.4428 4.92467L24.6396 4.25143C24.3235 3.96469 23.9063 3.80928 23.4757 3.81781H7.20353C6.83012 3.82448 6.46501 3.92675 6.14436 4.1145C5.70569 4.36621 5.38421 4.7755 5.24809 5.2556L0.0801167 22.201C-0.0164452 22.4803 -0.0259442 22.7814 0.0528362 23.0659C0.131617 23.3504 0.295109 23.6056 0.522426 23.7986C0.581658 23.8478 0.643851 23.8936 0.708664 23.9355C0.708664 23.9355 0.603891 23.867 0.545692 23.81L7.59931 29.778C7.89769 30.0473 8.28781 30.1978 8.69336 30.2002H25.0936C25.4681 30.1906 25.8335 30.0844 26.1528 29.8921C26.3334 29.7953 26.495 29.6678 26.63 29.5155L26.6882 29.4356L26.7813 29.3216L26.8512 29.196L27.6194 29.8465C27.9135 30.1051 28.2951 30.2473 28.6902 30.2458H45.1253C45.4994 30.2336 45.8641 30.1276 46.1845 29.9377C46.361 29.8351 46.5217 29.7083 46.6618 29.5612L46.7199 29.4813L46.813 29.3672C46.8625 29.295 46.9055 29.2187 46.941 29.1389C46.9791 29.0698 47.0103 28.9972 47.0342 28.9222L51.7482 13.4488V13.3118C51.754 13.2587 51.754 13.2052 51.7482 13.1521V13.0494C51.7539 13.0153 51.7539 12.9807 51.7482 12.9466C51.7535 12.8745 51.7535 12.802 51.7482 12.7298H53.2614C53.393 12.7417 53.5255 12.7417 53.6571 12.7298H53.7619C53.8471 12.7049 53.9291 12.6704 54.0063 12.6271H54.1227L54.3322 12.4674L54.4253 12.3989L54.5883 12.1935V12.1251L54.7047 11.9311C54.6982 11.8933 54.6982 11.8547 54.7047 11.817C54.6985 11.7985 54.6985 11.7785 54.7047 11.7599C54.7294 11.693 54.7489 11.6243 54.7629 11.5545C54.7575 11.532 54.7575 11.5085 54.7629 11.486C54.7572 11.4521 54.7572 11.4173 54.7629 11.3834C54.7629 11.3834 54.9957 10.9383 54.9957 10.9155Z" fill="black"/>
<path d="M23.9529 5.1187C24.0147 5.17348 24.0579 5.24551 24.0766 5.32508C24.0954 5.40466 24.0887 5.48794 24.0577 5.56372L18.9014 22.4977C18.8365 22.6826 18.7036 22.8372 18.5289 22.9314C18.3868 23.0246 18.2222 23.0797 18.0517 23.0911H1.66316C1.5232 23.0845 1.39061 23.0277 1.29069 22.9314C1.23125 22.8775 1.18954 22.8074 1.17088 22.7302C1.15221 22.653 1.15747 22.5721 1.18594 22.4977L6.35391 5.56372C6.41346 5.37651 6.54212 5.21781 6.71474 5.1187C6.85924 5.03216 7.023 4.98126 7.19196 4.97035H23.5805C23.7193 4.97166 23.8525 5.0247 23.9529 5.1187ZM15.3978 19.0858L18.4823 8.97562H9.84581L6.77292 19.0858H15.3978ZM39.5965 5.28985C39.6525 5.35356 39.7223 5.40408 39.801 5.43766C39.8796 5.47125 39.9648 5.48704 40.0505 5.48384H42.1805C42.2617 5.48462 42.3416 5.46512 42.4129 5.42719C42.4842 5.38925 42.5444 5.33413 42.5879 5.26703C42.6257 5.21462 42.6525 5.15529 42.6665 5.09256C42.6804 5.02984 42.6814 4.965 42.6694 4.90189L42.2504 1.88936C42.2105 1.74994 42.1388 1.62119 42.0409 1.51279C41.9849 1.44909 41.9151 1.39857 41.8365 1.36498C41.7579 1.3314 41.6726 1.31562 41.5869 1.31881H39.4569C39.3758 1.31803 39.2958 1.33753 39.2245 1.37547C39.1532 1.4134 39.093 1.46852 39.0495 1.53562C38.968 1.69537 38.9331 1.79807 38.968 1.88936L39.3987 4.90189C39.4208 5.04857 39.4901 5.18449 39.5965 5.28985ZM46.3592 1.86654C46.3192 1.72711 46.2476 1.59836 46.1496 1.48997C46.0961 1.4265 46.0283 1.37599 45.9516 1.34235C45.8749 1.30871 45.7913 1.29284 45.7073 1.29598H43.5656C43.4859 1.29376 43.407 1.31273 43.3373 1.3509C43.2676 1.38907 43.2098 1.44502 43.1699 1.51279C43.0925 1.61403 43.0589 1.74119 43.0768 1.86654L43.5074 4.87906C43.5345 5.0242 43.6031 5.15878 43.7053 5.26703C43.7622 5.32949 43.8323 5.37916 43.9107 5.41264C43.989 5.44612 44.0738 5.46262 44.1592 5.46101H46.301C46.3806 5.46205 46.4589 5.44257 46.5284 5.40451C46.5979 5.36646 46.6559 5.31119 46.6967 5.24422C46.7372 5.19316 46.7655 5.13385 46.7796 5.07067C46.7937 5.00749 46.7932 4.94203 46.7782 4.87906L46.3592 1.86654ZM37.7226 6.43096L37.513 4.94752H27.1888C27.0267 4.95628 26.8698 5.00752 26.7348 5.09587C26.6491 5.1417 26.5744 5.20522 26.5162 5.28205C26.458 5.35889 26.4174 5.4472 26.3973 5.5409L25.5359 8.37082C25.5016 8.44155 25.4898 8.5209 25.5023 8.5983C25.5148 8.6757 25.5508 8.74755 25.6058 8.80447C25.7039 8.89492 25.832 8.94765 25.9666 8.95282H38.5141L35.4296 19.063H22.917C22.7557 19.0666 22.5986 19.114 22.4631 19.1999C22.2985 19.3024 22.1783 19.4609 22.1256 19.645L21.2526 22.4749C21.2241 22.5475 21.2166 22.6264 21.231 22.7029C21.2454 22.7795 21.281 22.8506 21.334 22.9085C21.4291 23.005 21.5582 23.0622 21.6949 23.0683H38.1299C38.2999 23.0539 38.4638 22.9991 38.6071 22.9085C38.779 22.8139 38.908 22.659 38.968 22.4749L43.6936 7.00152H38.3744C38.29 7.00315 38.2062 6.98779 38.1281 6.95638C38.05 6.92498 37.9794 6.87819 37.9205 6.81893C37.8242 6.71545 37.7562 6.58987 37.7226 6.45379V6.43096Z" fill="white"/>
</g>
<defs>
<clipPath id="clip0_211_723">
<rect width="55" height="30" fill="white" transform="translate(0 0.24585)"/>
</clipPath>
</defs>
</svg>
