<svg width="52" height="21" viewBox="0 0 52 21" fill="none" xmlns="http://www.w3.org/2000/svg">
<g clip-path="url(#clip0_211_765)">
<path d="M12.3431 0.24585C10.3124 0.24585 8.36487 1.05255 6.92893 2.48849L2.24264 7.17478C0.8067 8.61072 0 10.5582 0 12.589C0 16.8178 3.42809 20.2458 7.65687 20.2458C9.6876 20.2458 11.6351 19.4391 13.0711 18.0032L16.3126 14.7617C16.3126 14.7616 16.3127 14.7617 16.3126 14.7617L25.7573 5.31692C26.4431 4.63112 27.3733 4.24585 28.3431 4.24585C29.9669 4.24585 31.3435 5.30412 31.8207 6.76856L34.8015 3.78782C33.4417 1.65808 31.0573 0.24585 28.3431 0.24585C26.3124 0.24585 24.3649 1.05255 22.9289 2.48849L10.2427 15.1748C9.55687 15.8606 8.62673 16.2458 7.65687 16.2458C5.63723 16.2458 4 14.6087 4 12.589C4 11.6191 4.38527 10.689 5.07107 10.0032L9.75733 5.31692C10.4431 4.63112 11.3733 4.24585 12.3431 4.24585C13.9669 4.24585 15.3435 5.30417 15.8207 6.76866L18.8015 3.7879C17.4417 1.65812 15.0574 0.24585 12.3431 0.24585Z" fill="#394149"/>
<path d="M26.2427 15.1748C25.5569 15.8606 24.6268 16.2458 23.6569 16.2458C22.0334 16.2458 20.6569 15.1878 20.1795 13.7236L17.1989 16.7043C18.5587 18.8338 20.9429 20.2458 23.6569 20.2458C25.6877 20.2458 27.6352 19.4391 29.0711 18.0032L41.7574 5.31692C42.4432 4.63112 43.3733 4.24585 44.3432 4.24585C46.3629 4.24585 48 5.88308 48 7.90272C48 8.87258 47.6148 9.80272 46.929 10.4885L42.2427 15.1748C41.5569 15.8606 40.6268 16.2458 39.6569 16.2458C38.0332 16.2458 36.6567 15.1876 36.1794 13.7233L33.1987 16.7041C34.5585 18.8337 36.9428 20.2458 39.6569 20.2458C41.6876 20.2458 43.6352 19.4391 45.0711 18.0032L49.7574 13.3169C51.1933 11.881 52 9.93345 52 7.90272C52 3.67394 48.572 0.24585 44.3432 0.24585C42.3125 0.24585 40.3649 1.05255 38.929 2.48849L26.2427 15.1748Z" fill="#394149"/>
</g>
<defs>
<clipPath id="clip0_211_765">
<rect width="52" height="20" fill="white" transform="translate(0 0.24585)"/>
</clipPath>
</defs>
</svg>
