<svg width="34" height="38" viewBox="0 0 34 38" fill="none" xmlns="http://www.w3.org/2000/svg">
<path d="M33 37V33C33 30.8783 32.1571 28.8434 30.6569 27.3431C29.1566 25.8429 27.1217 25 25 25H23C22.4696 25 21.9609 24.7893 21.5858 24.4142C21.2107 24.0391 21 23.5304 21 23V13C21 11.9391 20.5786 10.9217 19.8284 10.1716C19.0783 9.42143 18.0609 9 17 9C15.9391 9 14.9217 9.42143 14.1716 10.1716C13.4214 10.9217 13 11.9391 13 13V31L8.2 24.6C7.82741 24.1032 7.34428 23.7 6.78885 23.4223C6.23343 23.1446 5.62098 23 5 23H4.132C2.402 23 1 24.402 1 26.132C1 26.7 1.154 27.258 1.446 27.744L7 37M17 3V1V3ZM29 15H31H29ZM3 15H5H3ZM7.686 5.686L6.272 4.272L7.686 5.686ZM26.314 5.686L27.728 4.272L26.314 5.686Z" fill="#4CAF4F"/>
<path d="M33 37V33C33 30.8783 32.1571 28.8434 30.6569 27.3431C29.1566 25.8429 27.1217 25 25 25H23C22.4696 25 21.9609 24.7893 21.5858 24.4142C21.2107 24.0391 21 23.5304 21 23V13C21 11.9391 20.5786 10.9217 19.8284 10.1716C19.0783 9.42143 18.0609 9 17 9V9C15.9391 9 14.9217 9.42143 14.1716 10.1716C13.4214 10.9217 13 11.9391 13 13V31L8.2 24.6C7.82741 24.1032 7.34428 23.7 6.78885 23.4223C6.23343 23.1446 5.62098 23 5 23H4.132C2.402 23 1 24.402 1 26.132C1 26.7 1.154 27.258 1.446 27.744L7 37M17 3V1M29 15H31M3 15H5M7.686 5.686L6.272 4.272M26.314 5.686L27.728 4.272" stroke="#4CAF4F" stroke-width="2" stroke-linecap="round" stroke-linejoin="round"/>
</svg>
