<svg width="47" height="30" viewBox="0 0 47 30" fill="none" xmlns="http://www.w3.org/2000/svg">
<g clip-path="url(#clip0_211_741)">
<path d="M43.9965 3.81056C43.9965 3.84437 43.9965 3.88664 43.9877 3.912C43.9437 4.24168 43.9437 4.57136 43.9701 4.9095C43.9877 4.99404 44.0053 5.07857 44.0758 5.1462C44.1903 5.273 44.3664 5.24764 44.4369 5.09548C44.4722 5.0194 44.4722 4.94332 44.4545 4.86724C44.3664 4.546 44.3488 4.20787 44.34 3.87818C44.34 3.86127 44.34 3.83591 44.34 3.81056C44.4369 3.8021 44.525 3.79364 44.6042 3.79364C44.6659 3.78519 44.7188 3.77674 44.7628 3.75138C44.8949 3.68375 44.8949 3.54005 44.754 3.47242C44.7011 3.44705 44.6307 3.4386 44.569 3.4386C44.3488 3.44705 44.1287 3.44705 43.9084 3.44705C43.8292 3.44705 43.7499 3.45551 43.6706 3.46396C43.6266 3.47242 43.5737 3.47242 43.5385 3.49778C43.4768 3.52313 43.4417 3.5654 43.4417 3.62457C43.4504 3.68375 43.4768 3.71757 43.5385 3.74293C43.5737 3.76829 43.6178 3.77674 43.6618 3.77674C43.7675 3.78519 43.882 3.8021 43.9965 3.81056ZM46.4186 4.19941C46.4186 4.20787 46.4274 4.21632 46.4274 4.21632C46.4627 4.44456 46.4979 4.66436 46.5243 4.88414C46.5332 4.96022 46.542 5.02785 46.5948 5.08702C46.7093 5.23073 46.8855 5.21383 46.9647 5.06167C47 4.98558 47.0087 4.9095 46.9912 4.82497C46.9383 4.57136 46.9119 4.31776 46.859 4.07261C46.8238 3.92045 46.7798 3.77674 46.7357 3.64149C46.7093 3.55695 46.6477 3.49777 46.542 3.48932C46.4363 3.47242 46.357 3.52313 46.3129 3.59922C46.2601 3.66684 46.2161 3.73447 46.1808 3.81056C46.1192 3.94581 46.0663 4.08107 45.9959 4.20787C45.987 4.24168 45.9782 4.26704 45.9606 4.2924C45.9519 4.27549 45.9431 4.26704 45.9431 4.26704C45.8285 4.05571 45.7228 3.84437 45.6083 3.64149C45.5907 3.62457 45.5819 3.60767 45.5731 3.59076C45.5203 3.51468 45.4586 3.47242 45.3617 3.47242C45.2736 3.48087 45.2031 3.53159 45.1592 3.60767C45.1415 3.64149 45.1415 3.66684 45.1327 3.70066C45.0975 3.97117 45.0534 4.24168 45.0182 4.51219C45.0006 4.66436 44.9918 4.81651 44.9918 4.96868C44.983 5.00249 44.9918 5.04476 45.0094 5.07857C45.027 5.1462 45.0799 5.18847 45.1503 5.19692C45.2384 5.20538 45.3 5.18002 45.3265 5.11239C45.3529 5.06167 45.3617 5.0194 45.3705 4.97713C45.4058 4.82497 45.4322 4.68126 45.4586 4.53755C45.4762 4.45302 45.485 4.38539 45.5115 4.2924C45.5291 4.32622 45.5466 4.35158 45.5643 4.37693C45.6435 4.47838 45.7228 4.57982 45.8197 4.66436C45.9166 4.73198 45.9959 4.72353 46.0751 4.64744C46.0928 4.63054 46.1016 4.62209 46.1192 4.60518C46.1985 4.48683 46.2954 4.36848 46.3746 4.25013C46.3922 4.23322 46.401 4.21632 46.4186 4.19941Z" fill="#3A3B7B"/>
<path d="M26.1244 3.97665C26.0632 4.1373 26.0515 4.25305 26.0798 4.34925C26.111 4.48006 26.192 4.52289 26.302 4.48962C27.3366 4.24409 29.6051 4.94101 30.445 5.13525C30.6431 5.17604 30.8042 4.93063 30.6691 4.71059C30.4718 4.49751 28.2043 3.58522 27.3391 3.53548C26.9999 3.51708 26.3936 3.43361 26.1244 3.97665Z" fill="#3A3B7B"/>
<path d="M34.9904 1.02346C35.1006 1.08454 35.1622 1.1428 35.1927 1.2079C35.238 1.29329 35.2141 1.35238 35.1379 1.38252C34.4541 1.70285 33.5441 3.08194 33.1768 3.55758C33.0877 3.66699 32.8823 3.60341 32.8513 3.42348C32.8577 3.22003 33.6643 1.72341 34.1145 1.31578C34.2915 1.15663 34.5837 0.84436 34.9904 1.02346Z" fill="#3A3B7B"/>
<path d="M29.5445 0.344579C29.6769 0.248762 29.8146 0.215185 29.8849 0.277454C30.9167 1.12435 31.4638 2.46549 31.8026 3.69327C31.8154 3.72188 31.8162 3.76292 31.806 3.80574C31.8017 3.84234 31.7739 3.88101 31.7296 3.91092C31.6824 3.94395 31.6417 3.95401 31.6225 3.92555C31.1703 3.33522 28.5875 1.03835 29.5445 0.344579Z" fill="#3A3B7B"/>
<path d="M7.69524 15.0277C7.94253 14.8509 8.21137 14.7038 8.49586 14.5897C8.7935 14.508 9.11075 14.5215 9.39966 14.6283C9.68851 14.7351 9.93338 14.9292 10.0971 15.1814C10.2435 15.4329 10.3008 15.7233 10.2604 16.0088C10.2199 16.2942 10.084 16.5594 9.87289 16.7643C9.70926 16.9304 9.52348 17.0751 9.3205 17.1946C8.41582 17.7556 7.50308 18.2857 6.59039 18.8467C6.40363 18.9871 6.20551 19.113 5.99793 19.2232C5.68217 19.3744 5.32132 19.4148 4.97776 19.3376C4.6342 19.2605 4.32955 19.0705 4.11648 18.8006C3.95719 18.6095 3.82277 18.4005 3.71616 18.1782C2.8515 16.4339 1.95481 14.6972 1.12217 12.9222C0.737866 12.1538 0.425627 11.2701 0.121393 10.4172C-0.010233 10.1694 -0.0359366 9.88206 0.0497553 9.61632C0.135447 9.35057 0.325774 9.1274 0.580249 8.99427C0.834727 8.86113 1.13327 8.82857 1.4124 8.90344C1.69152 8.97832 1.92921 9.15476 2.0749 9.39519C2.52271 9.96636 2.91911 10.5731 3.25981 11.2087C4.12448 12.7455 4.94912 14.2823 5.78176 15.773C5.83024 15.8554 5.8837 15.9349 5.94188 16.0112C6.56859 15.7583 7.15803 15.4277 7.69524 15.0277Z" fill="#3A3B7B"/>
<path d="M16.6354 14.4916C14.6579 16.7123 11.3433 16.1513 9.67801 13.2928C8.49308 11.2642 8.28493 7.91392 10.8629 5.80079C11.4135 5.35839 12.0717 5.05702 12.7764 4.92479C13.6404 4.80591 14.5214 4.9522 15.2936 5.34277C16.0657 5.73333 16.6895 6.34817 17.0757 7.09942C18.4848 9.55835 18.2847 12.6935 16.6354 14.4916ZM15.8347 9.31245C15.6247 8.70819 15.2032 8.19232 14.6418 7.85243C14.3242 7.63513 13.9382 7.52947 13.5489 7.55327C13.1595 7.57706 12.7906 7.72885 12.5042 7.98306C11.3593 8.95898 11.1191 11.2719 11.9517 12.6474C12.0579 12.8717 12.2137 13.071 12.4085 13.2314C12.6033 13.3918 12.8323 13.5095 13.0793 13.576C13.3264 13.6427 13.5857 13.6566 13.839 13.617C14.0923 13.5774 14.3335 13.4851 14.5458 13.3466C15.1664 12.8848 15.6217 12.2489 15.8484 11.5273C16.0751 10.8057 16.062 10.0342 15.8108 9.32016L15.8347 9.31245Z" fill="#3A3B7B"/>
<path d="M24.7055 10.2806C24.5031 10.3224 24.294 10.3249 24.0904 10.288C23.887 10.251 23.6932 10.1754 23.5207 10.0655C23.3697 9.98261 23.2397 9.86865 23.14 9.73176C23.0405 9.59486 22.9737 9.43853 22.9446 9.27389C22.9155 9.10931 22.9248 8.94058 22.9718 8.77983C23.0188 8.61908 23.1024 8.47032 23.2164 8.34424C23.4152 8.09088 23.6973 7.9095 24.0171 7.82942C24.8518 7.59689 25.7112 7.45512 26.579 7.40681C26.7697 7.38552 26.9629 7.40101 27.1472 7.45236C27.3316 7.50376 27.5033 7.58991 27.6525 7.70591C27.8016 7.82184 27.9252 7.96526 28.0158 8.12766C28.1064 8.29006 28.1623 8.46821 28.1802 8.65164C28.4304 9.55262 28.4578 10.4973 28.2603 11.4103C27.5398 14.3609 25.0578 15.3752 22.2717 14.4301C21.4896 14.1774 20.8039 13.7065 20.3022 13.0777C19.633 12.3204 19.1586 11.4229 18.9171 10.4574C18.7214 9.59763 18.7428 8.70549 18.9797 7.85532C19.2164 7.00516 19.6616 6.22167 20.2781 5.57029C20.8632 4.86231 21.6226 4.30514 22.4879 3.94893C23.0346 3.65969 23.6744 3.57745 24.2813 3.71841C24.4189 3.75497 24.5439 3.82622 24.6432 3.92476C24.7425 4.02331 24.8125 4.14555 24.846 4.27883C24.8795 4.41209 24.8752 4.55154 24.8336 4.6827C24.792 4.81385 24.7147 4.93194 24.6095 5.02471C24.4096 5.19842 24.1924 5.35284 23.961 5.48576C23.2492 5.92081 22.6298 6.4814 22.1356 7.13784C21.8116 7.56262 21.5885 8.05042 21.482 8.56681C21.3755 9.08321 21.3881 9.61576 21.5191 10.127C21.7007 10.8241 22.1036 11.4497 22.672 11.9174C24.4333 13.4542 26.7231 11.9711 26.3228 9.87339C25.7384 10.0117 25.226 10.1577 24.7055 10.2806Z" fill="#3A3B7B"/>
<path d="M35.466 14.6145C32.864 16.1514 29.9017 14.6145 29.2532 11.3872C28.7809 9.08196 29.6776 5.8546 32.816 4.62514C33.4838 4.36918 34.208 4.27931 34.9216 4.36387C35.779 4.51451 36.5655 4.91961 37.1702 5.52206C37.7748 6.12451 38.1674 6.89391 38.2922 7.72186C38.8206 10.4651 37.6197 13.3927 35.466 14.6145ZM36.3708 9.44307C36.37 8.80474 36.1347 8.18704 35.7062 7.69879C35.4772 7.39679 35.1461 7.18041 34.7695 7.08649C34.3927 6.99264 33.9938 7.02704 33.6406 7.18397C32.2315 7.76793 31.2388 9.88875 31.5991 11.4487C31.6266 11.6935 31.7094 11.9296 31.8419 12.1404C31.9744 12.3512 32.1532 12.5318 32.366 12.6694C32.5787 12.8069 32.8202 12.8983 33.0736 12.937C33.327 12.9756 33.5861 12.9607 33.8328 12.8933C34.5776 12.6436 35.2225 12.1768 35.6774 11.5583C36.1325 10.9397 36.3749 10.2002 36.3708 9.44307Z" fill="#3A3B7B"/>
<path d="M40.9235 15.26C40.8843 15.5413 40.7302 15.796 40.4952 15.9682C40.2602 16.1404 39.9636 16.216 39.6706 16.1783C39.3776 16.1406 39.1122 15.9927 38.9328 15.7671C38.7533 15.5417 38.6746 15.2569 38.7139 14.9757C38.7531 14.6945 38.9072 14.4397 39.1422 14.2675C39.3772 14.0953 39.6738 14.0197 39.9668 14.0574C40.2598 14.0951 40.5252 14.243 40.7047 14.4685C40.8841 14.6941 40.9629 14.9788 40.9235 15.26ZM40.227 4.89409C40.3793 4.67088 40.6027 4.50091 40.8638 4.40951C41.125 4.31812 41.4099 4.3102 41.6761 4.38693C41.9468 4.45193 42.1859 4.60418 42.3535 4.81821C42.5211 5.03224 42.607 5.29504 42.5969 5.56261C42.5616 5.99179 42.4947 6.41804 42.3967 6.83816C42.1325 8.25975 41.8763 9.68128 41.5961 11.0875C41.468 11.6485 41.2999 12.1864 41.1157 12.755C41.0516 12.9327 40.9446 13.0933 40.8035 13.2237C40.7157 13.3218 40.6037 13.397 40.4776 13.4424C40.3515 13.4879 40.2155 13.502 40.0822 13.4836C39.949 13.4653 39.8226 13.4149 39.715 13.3373C39.6073 13.2596 39.5219 13.1571 39.4665 13.0393C39.3713 12.828 39.3196 12.6009 39.3143 12.3708C39.3143 11.4179 39.3143 10.4574 39.3784 9.49687C39.4872 8.12609 39.7013 6.76486 40.0189 5.42429C40.0563 5.24469 40.1267 5.07294 40.227 4.91714V4.89409Z" fill="#3A3B7B"/>
<path fill-rule="evenodd" clip-rule="evenodd" d="M4.31263 21.4349C4.2181 21.6374 4.19218 21.8632 4.23837 22.0805C4.2691 22.3669 4.3366 22.6487 4.43933 22.9193C4.56759 23.2507 4.71111 23.5784 4.88807 23.9823C4.92876 24.0752 4.97129 24.1723 5.01579 24.2744C5.25443 24.8215 5.55386 25.5208 5.95326 26.5329C6.06631 26.8204 6.1667 27.1102 6.26779 27.4021C6.30862 27.52 6.34961 27.6383 6.39156 27.7569C6.54193 28.1784 6.80067 28.5571 7.14364 28.8573C7.28927 29.0222 7.48244 29.1425 7.69904 29.2026C7.91988 29.2639 8.15474 29.26 8.37323 29.1914C8.59171 29.1228 8.7836 28.9927 8.924 28.818C9.06164 28.6467 9.14349 28.4403 9.1594 28.2246C9.2487 27.8045 9.21822 27.3689 9.07104 26.9639C8.83745 26.2914 8.57136 25.618 8.26452 24.9593L8.26311 24.9564C7.75833 23.9258 7.24523 22.9024 6.70784 21.8786L6.70382 21.8714C6.5465 21.6046 6.34206 21.3662 6.09967 21.1667C5.94232 20.9887 5.72526 20.8686 5.48556 20.8272C5.24076 20.785 4.98827 20.8276 4.77319 20.9475C4.56972 21.059 4.40843 21.2296 4.31263 21.4349Z" fill="#3A3B7B"/>
<path fill-rule="evenodd" clip-rule="evenodd" d="M12.0224 18.8972C11.2309 18.7004 10.4043 18.6718 9.60018 18.8132C8.97737 18.8721 8.36482 19.0099 7.93947 19.2831C7.72314 19.4221 7.54823 19.6006 7.45094 19.8274C7.35311 20.0555 7.34063 20.3164 7.42079 20.6071C7.56717 21.1395 7.75725 21.6571 7.94666 22.1731L7.97734 22.2567L7.97808 22.2585C8.54839 23.7576 9.12414 25.2515 9.70513 26.7404C9.77288 26.975 9.86869 27.2013 9.99062 27.4148L9.9929 27.4188C10.154 27.684 10.3606 27.9212 10.604 28.1204C10.7257 28.23 10.8762 28.3058 11.0395 28.3396C11.2043 28.3738 11.3757 28.3639 11.535 28.3109C11.6944 28.258 11.8356 28.1641 11.9431 28.0394C12.049 27.9167 12.1182 27.7689 12.1437 27.6117C12.2487 27.1844 12.2151 26.7366 12.0472 26.3282C11.9948 26.1908 11.9537 26.0503 11.9104 25.9025C11.896 25.8532 11.8814 25.8031 11.8659 25.752C13.1958 25.253 14.6109 24.5822 15.1085 23.0214C15.3033 22.4821 15.3195 21.8981 15.1549 21.3494C14.9901 20.8002 14.6521 20.3134 14.1873 19.9561C13.5548 19.4558 12.8159 19.0944 12.0224 18.8972ZM9.82847 20.8115C9.85466 20.8043 9.88104 20.7975 9.9075 20.7913C10.7733 20.6606 11.6591 20.8347 12.4019 21.2813C12.7292 21.4998 12.8633 21.7425 12.8863 21.9761C12.9101 22.2166 12.8189 22.4772 12.6359 22.7277C12.2901 23.201 11.6589 23.5797 11.0888 23.6503C10.6732 22.7317 10.2511 21.7759 9.82847 20.8115Z" fill="#3A3B7B"/>
<path d="M17.2991 17.2157C18.2417 16.7979 19.4092 16.7257 20.3228 17.0194C20.5529 17.0838 20.7525 17.2229 20.8876 17.4131C21.0217 17.602 21.0836 17.8297 21.0629 18.0574C21.0616 18.2052 21.0238 18.3505 20.9527 18.4817C20.8803 18.6152 20.7755 18.7301 20.6471 18.8165C20.5187 18.9029 20.3706 18.9585 20.2151 18.9783C20.0596 18.9982 19.9015 18.9819 19.754 18.9307L19.7428 18.9268L19.7322 18.9215C19.6568 18.8836 19.5766 18.855 19.4937 18.8364L19.4884 18.8353C18.8457 18.6715 18.2395 18.9429 18.0181 19.2765C17.9125 19.4355 17.8994 19.5961 17.9873 19.7422C18.0815 19.8986 18.3126 20.0741 18.7801 20.1992C18.9087 20.233 19.0405 20.2657 19.1741 20.299C19.5438 20.3908 19.928 20.4863 20.2995 20.6185L20.3009 20.6191C22.0148 21.2449 22.653 22.5412 22.4345 23.7604C22.2184 24.966 21.1693 26.0633 19.5916 26.3221C19.0176 26.4442 18.4201 26.4205 17.8585 26.2531C17.2954 26.0852 16.7879 25.779 16.3863 25.3645L16.3758 25.3537C16.2491 25.1976 16.1638 25.0142 16.126 24.8195C16.0912 24.6439 16.1095 24.4624 16.1787 24.2963C16.2474 24.1313 16.3637 23.9885 16.5138 23.8844C16.6723 23.7664 16.8634 23.6956 17.0634 23.6809C17.2628 23.6662 17.4623 23.7078 17.6373 23.8004C17.8121 23.8815 17.9748 23.9849 18.1207 24.1079L18.1235 24.1101C18.3817 24.3368 18.6941 24.3959 18.9937 24.3412C19.2977 24.2857 19.5835 24.113 19.7673 23.884C19.95 23.6564 20.0233 23.3861 19.9363 23.1236C19.8487 22.8593 19.5854 22.5631 19.007 22.3154C18.8558 22.2538 18.699 22.2041 18.5359 22.1557C18.492 22.1427 18.4472 22.1297 18.402 22.1165C18.2814 22.0814 18.1573 22.0452 18.0357 22.0053C17.9519 21.9779 17.8687 21.952 17.7864 21.9262C17.5614 21.8559 17.3421 21.7873 17.131 21.6954C16.6715 21.5452 16.2746 21.2569 15.9992 20.8732C15.7227 20.4878 15.5836 20.0271 15.6025 19.5596C15.604 18.4205 16.3515 17.6358 17.2991 17.2157Z" fill="#3A3B7B"/>
<path d="M29.2488 17.0943C29.066 17.0086 28.8639 16.968 28.6607 16.976C28.4575 16.984 28.2595 17.0404 28.0848 17.1403C27.9111 17.2394 27.7656 17.3782 27.6614 17.5444C27.5659 17.6843 27.4998 17.8408 27.4668 18.0051C27.4338 18.1692 27.4346 18.338 27.4691 18.5018C27.5031 18.7123 27.5408 18.917 27.5781 19.1189C27.6398 19.453 27.6998 19.7795 27.7394 20.1125L27.7409 20.1209C27.8311 20.6431 27.8783 21.1713 27.8825 21.7005L27.8829 21.708C27.9138 22.2796 27.7108 22.84 27.3177 23.2704L27.3115 23.2781C27.1836 23.4354 27.0126 23.5555 26.8175 23.6249C26.6225 23.6943 26.4113 23.7102 26.2074 23.6709C26.0035 23.6317 25.815 23.5387 25.663 23.4025C25.511 23.2663 25.4013 23.0916 25.3466 22.8991C25.2298 22.4933 25.1622 22.0759 25.145 21.6552L25.3445 18.6061C25.3475 18.5663 25.3508 18.5254 25.3543 18.4842C25.3619 18.3916 25.3696 18.2972 25.3729 18.2092C25.3776 18.0798 25.3735 17.9467 25.3421 17.8206C25.31 17.6919 25.2488 17.5693 25.1403 17.465C25.0329 17.3617 24.8878 17.2855 24.7053 17.2337C24.3753 17.142 24.0963 17.1449 23.8638 17.2396C23.6311 17.3343 23.4717 17.5102 23.3589 17.7133C23.247 17.9147 23.1751 18.1532 23.1207 18.392C23.0803 18.5692 23.0479 18.7553 23.0171 18.9324C23.0064 18.9934 22.996 19.0533 22.9855 19.1115L22.9852 19.1133C22.8203 20.0845 22.7712 21.0706 22.8389 22.0525C22.8515 22.5832 22.9668 23.107 23.179 23.5971C23.4183 24.2296 23.8519 24.7776 24.4224 25.1687C24.9941 25.5607 25.6763 25.7767 26.3788 25.7881C27.0812 25.7995 27.7707 25.6058 28.356 25.2327C28.9402 24.8601 29.393 24.3261 29.6545 23.7013C30.0202 22.9055 30.192 22.04 30.1565 21.1707C30.135 20.5362 30.0991 19.8967 30.0633 19.2605C30.0457 18.9484 30.0281 18.637 30.0124 18.3275C30.0045 18.0171 29.8979 17.7165 29.7068 17.466C29.5886 17.3076 29.4312 17.1799 29.2488 17.0943Z" fill="#3A3B7B"/>
<path d="M35.7174 21.8754C35.6988 21.898 35.6793 21.9214 35.6589 21.9458C35.5102 21.1227 35.3725 20.2999 35.2345 19.4758C35.185 19.1801 35.1352 18.8832 35.0852 18.5872L35.0796 18.5541L35.0613 18.5256C35.0269 18.4719 35.0234 18.4192 35.0234 18.3069V18.2939L35.0214 18.2811C34.984 18.0491 34.8747 17.8333 34.7077 17.6618C34.5412 17.4908 34.325 17.3717 34.0871 17.3201C33.8496 17.2638 33.6 17.2762 33.3698 17.3557C33.1402 17.435 32.94 17.5775 32.7943 17.7653C32.6732 17.9095 32.5739 18.0694 32.4995 18.2402C32.3306 18.6082 32.1603 18.9772 31.9895 19.3472L31.9865 19.3535C31.5601 20.2771 31.1308 21.2069 30.7139 22.144L30.7127 22.147C30.4568 22.7547 30.2456 23.3949 30.0351 24.0332C29.993 24.1606 29.951 24.2879 29.9086 24.4149C29.8326 24.6163 29.7994 24.8303 29.8108 25.0441C29.797 25.2356 29.8447 25.4266 29.9477 25.5913C30.0527 25.7594 30.21 25.8916 30.3974 25.9694C30.596 26.053 30.8181 26.0707 31.0284 26.0199C31.2383 25.969 31.4247 25.8528 31.5583 25.6893C31.7288 25.488 31.8755 25.2684 31.9952 25.0357C32.3483 24.3425 32.6857 23.6408 33.0216 22.9422C33.1516 22.6719 33.2779 22.4299 33.4216 22.1664C33.4315 22.1988 33.4416 22.2305 33.452 22.2623C33.6026 22.8987 33.8568 23.5082 34.2052 24.0686C34.2711 24.1873 34.363 24.291 34.4744 24.3727C34.5872 24.4553 34.7174 24.5133 34.8559 24.5428C34.9944 24.5722 35.138 24.5724 35.2766 24.5432C35.415 24.514 35.5455 24.456 35.6584 24.3737L35.8818 24.2132L37.6156 22.8115L37.5131 23.4387C37.3724 24.3007 37.2327 25.1555 37.0843 26.0106C36.9872 26.3895 36.9874 26.7854 37.0847 27.1642C37.1269 27.3775 37.2343 27.5737 37.3933 27.7281C37.5537 27.8837 37.759 27.9894 37.9827 28.0316C38.2064 28.0737 38.4382 28.0504 38.6479 27.9645C38.8545 27.8799 39.0303 27.7385 39.1532 27.5582C39.4391 27.2178 39.617 26.8057 39.6659 26.3709C39.7395 25.7569 39.8226 25.1345 39.9058 24.5123C40.0016 23.7952 40.0974 23.0782 40.1783 22.375L40.1786 22.3728C40.2565 21.6031 40.2942 20.8302 40.2915 20.0568C40.3086 19.8124 40.2452 19.5689 40.1101 19.3609C39.9746 19.1521 39.7738 18.9897 39.5365 18.8969C39.2897 18.7892 39.0134 18.7604 38.7483 18.8148C38.4849 18.8689 38.2464 19.0021 38.0676 19.1952C37.7478 19.479 37.4478 19.7828 37.1695 20.1045L37.1676 20.1067C36.8638 20.47 36.562 20.8405 36.2622 21.2086C36.0799 21.4324 35.8982 21.6556 35.7174 21.8754Z" fill="#3A3B7B"/>
</g>
<defs>
<clipPath id="clip0_211_741">
<rect width="47" height="29" fill="white" transform="translate(0 0.24585)"/>
</clipPath>
</defs>
</svg>
