<svg width="41" height="28" viewBox="0 0 41 28" fill="none" xmlns="http://www.w3.org/2000/svg">
<g clip-path="url(#clip0_211_759)">
<path d="M38.4375 1.0896C38.4375 1.55559 38.8199 1.93335 39.2917 1.93335H40.1458C40.6176 1.93335 41 1.55559 41 1.0896C41 0.62361 40.6176 0.24585 40.1458 0.24585H39.2917C38.8199 0.24585 38.4375 0.62361 38.4375 1.0896Z" fill="#212326"/>
<path d="M13.6667 27.2458H17.8161L16.6081 26.0526C16.2877 25.7361 15.8532 25.5583 15.4001 25.5583H13.6667C7.06225 25.5583 1.70833 20.2697 1.70833 13.7458C1.70833 7.22197 7.06225 1.93336 13.6667 1.93335H27.3333C33.9378 1.93335 39.2917 7.22197 39.2917 13.7458C39.2917 20.2697 33.9378 25.5583 27.3333 25.5583H22.2209C21.5413 25.5583 20.8895 25.2917 20.4089 24.817L18.9937 23.419C18.1928 22.6278 17.1064 22.1833 15.9737 22.1833H13.6667C8.94921 22.1833 5.125 18.4058 5.125 13.7458C5.125 9.08592 8.94921 5.30835 13.6667 5.30835H27.3333C32.0508 5.30835 35.875 9.08592 35.875 13.7458C35.875 18.4058 32.0508 22.1833 27.3333 22.1833H24.0507C23.371 22.1833 22.7193 21.9167 22.2387 21.442L20.8234 20.044C20.0225 19.2528 18.9362 18.8083 17.8035 18.8083H13.6667C10.8362 18.8083 8.54167 16.5418 8.54167 13.7458C8.54167 10.9499 10.8362 8.68335 13.6667 8.68335H27.3333C30.1638 8.68335 32.4583 10.9499 32.4583 13.7458C32.4583 16.5077 30.2194 18.753 27.4367 18.8073L27.4361 18.8083H26.1861C25.5064 18.8083 24.8547 18.5417 24.3741 18.067L22.9588 16.669C22.3017 16.0198 21.4524 15.6041 20.5429 15.4757L20.5 15.4333H13.6667C12.7232 15.4333 11.9583 14.6778 11.9583 13.7458C11.9583 12.8139 12.7232 12.0583 13.6667 12.0583H27.3333C28.2768 12.0583 29.0417 12.8139 29.0417 13.7458C29.0417 14.6778 28.2768 15.4333 27.3333 15.4333H23.9167L25.1247 16.6266C25.445 16.9431 25.8795 17.1208 26.3326 17.1208H27.3333C29.2203 17.1208 30.75 15.6098 30.75 13.7458C30.75 11.8819 29.2203 10.3708 27.3333 10.3708H13.6667C11.7797 10.3708 10.25 11.8819 10.25 13.7458C10.25 15.6098 11.7797 17.1208 13.6667 17.1208H19.9389C20.6186 17.1208 21.2703 17.3875 21.7509 17.8622L23.1662 19.2602C23.9671 20.0514 25.0534 20.4958 26.1861 20.4958H27.7604V20.4829C31.3354 20.2651 34.1667 17.3321 34.1667 13.7458C34.1667 10.018 31.1072 6.99585 27.3333 6.99585H13.6667C9.89275 6.99585 6.83333 10.018 6.83333 13.7458C6.83333 17.4738 9.89275 20.4958 13.6667 20.4958H17.8035C18.4831 20.4958 19.1349 20.7625 19.6155 21.2372L21.0307 22.6352C21.8317 23.4264 22.918 23.8708 24.0507 23.8708H27.3333C32.9943 23.8708 37.5833 19.3378 37.5833 13.7458C37.5833 8.15395 32.9943 3.62085 27.3333 3.62085H13.6667C8.00573 3.62085 3.41667 8.15395 3.41667 13.7458C3.41667 19.3378 8.00573 23.8708 13.6667 23.8708H15.9737C16.6534 23.8708 17.3051 24.1375 17.7857 24.6122L19.201 26.0102C20.0019 26.8014 21.0882 27.2458 22.2209 27.2458H27.3333C34.8812 27.2458 41 21.2017 41 13.7458C41 6.29 34.8812 0.245849 27.3333 0.24585L13.6667 0.245852C6.11877 0.245853 -6.59857e-07 6.29001 0 13.7458C6.59857e-07 21.2017 6.11878 27.2458 13.6667 27.2458Z" fill="#212326"/>
</g>
<defs>
<clipPath id="clip0_211_759">
<rect width="41" height="27" fill="white" transform="translate(0 0.24585)"/>
</clipPath>
</defs>
</svg>
