<svg width="191" height="30" viewBox="0 0 191 30" fill="none" xmlns="http://www.w3.org/2000/svg">
<path d="M23.2259 16.2379L16.561 27.6527L9.89611 16.2379H23.2259ZM25.0114 15.2177H8.10339L16.561 29.6717L25.0114 15.2177Z" fill="white"/>
<path d="M34.8137 2.0404L41.4786 13.4552H28.1488L34.8137 2.0404ZM34.8137 0L26.3561 14.454H43.2713L34.8137 0Z" fill="white"/>
<path d="M0 0L7.09143 12.7846L14.8406 0.321025L0 0Z" fill="#4CAF4F"/>
<path d="M16.5612 1.11987L23.9997 13.8332H9.1084L16.5612 1.11987Z" fill="#4CAF4F"/>
<path d="M25.9152 16.6089L33.3608 29.6718H18.1154L25.6838 16.6089H25.9152Z" fill="#4CAF4F"/>
<path d="M27.5271 15.8169L34.8137 28.68L42.2014 15.8169H27.5271Z" fill="#4CAF4F"/>
<path d="M74.2197 2.06335V27.2394H69.6222L58.6691 11.3937H58.4847V27.2394H53.1619V2.06335H57.8332L68.7002 17.8967H68.9215V2.06335H74.2197Z" fill="white"/>
<path d="M87.1243 27.6082C85.182 27.6082 83.5102 27.2148 82.1088 26.428C80.7156 25.6331 79.642 24.5103 78.888 23.0598C78.134 21.601 77.757 19.8759 77.757 17.8844C77.757 15.9421 78.134 14.2375 78.888 12.7705C79.642 11.3036 80.7033 10.1603 82.0719 9.3408C83.4487 8.52127 85.0632 8.1115 86.9153 8.1115C88.161 8.1115 89.3206 8.31229 90.3942 8.71386C91.476 9.10723 92.4185 9.70139 93.2216 10.4963C94.033 11.2913 94.664 12.2911 95.1147 13.4958C95.5655 14.6923 95.7908 16.0937 95.7908 17.7V19.1383H79.8469V15.893H90.8614C90.8614 15.139 90.6975 14.4711 90.3696 13.8892C90.0418 13.3073 89.587 12.8525 89.0051 12.5247C88.4315 12.1887 87.7635 12.0207 87.0014 12.0207C86.2064 12.0207 85.5016 12.2051 84.887 12.5739C84.2805 12.9344 83.8052 13.4221 83.461 14.0367C83.1168 14.6432 82.9406 15.3193 82.9324 16.0651V19.1506C82.9324 20.0849 83.1045 20.8921 83.4487 21.5723C83.8011 22.2525 84.2969 22.777 84.9361 23.1458C85.5754 23.5146 86.3335 23.699 87.2104 23.699C87.7922 23.699 88.3249 23.617 88.8084 23.4531C89.292 23.2892 89.7058 23.0434 90.05 22.7156C90.3942 22.3877 90.6565 21.9862 90.8368 21.5109L95.6802 21.8305C95.4344 22.9942 94.9303 24.0104 94.1682 24.8791C93.4142 25.7396 92.439 26.4117 91.2424 26.8952C90.0541 27.3705 88.6814 27.6082 87.1243 27.6082Z" fill="white"/>
<path d="M103.247 8.35736L106.713 14.9587L110.266 8.35736H115.638L110.167 17.7984L115.785 27.2394H110.438L106.713 20.7118L103.05 27.2394H97.6409L103.247 17.7984L97.8376 8.35736H103.247Z" fill="white"/>
<path d="M126.603 27.6082C124.669 27.6082 123.005 27.1984 121.612 26.3789C120.227 25.5511 119.162 24.4038 118.416 22.9368C117.679 21.4699 117.31 19.7816 117.31 17.8721C117.31 15.938 117.683 14.2416 118.428 12.7828C119.182 11.3159 120.252 10.1726 121.637 9.35309C123.022 8.52536 124.669 8.1115 126.579 8.1115C128.226 8.1115 129.668 8.41063 130.906 9.00889C132.143 9.60715 133.123 10.4472 133.844 11.5289C134.565 12.6107 134.962 13.881 135.036 15.3398H130.094C129.955 14.3973 129.586 13.6392 128.988 13.0656C128.398 12.4837 127.624 12.1928 126.665 12.1928C125.853 12.1928 125.144 12.414 124.538 12.8566C123.94 13.2909 123.473 13.9261 123.137 14.762C122.801 15.5979 122.633 16.61 122.633 17.7984C122.633 19.0031 122.796 20.0275 123.124 20.8716C123.46 21.7157 123.932 22.3591 124.538 22.8016C125.144 23.2442 125.853 23.4654 126.665 23.4654C127.263 23.4654 127.8 23.3425 128.275 23.0966C128.759 22.8508 129.156 22.4943 129.467 22.0272C129.787 21.5518 129.996 20.9823 130.094 20.3184H135.036C134.954 21.7608 134.561 23.0311 133.856 24.1293C133.159 25.2192 132.197 26.0715 130.967 26.6862C129.738 27.3008 128.283 27.6082 126.603 27.6082Z" fill="white"/>
<path d="M146.994 27.6082C145.052 27.6082 143.38 27.2148 141.979 26.428C140.585 25.6331 139.512 24.5103 138.758 23.0598C138.004 21.601 137.627 19.8759 137.627 17.8844C137.627 15.9421 138.004 14.2375 138.758 12.7705C139.512 11.3036 140.573 10.1603 141.942 9.3408C143.319 8.52127 144.933 8.1115 146.785 8.1115C148.031 8.1115 149.191 8.31229 150.264 8.71386C151.346 9.10723 152.288 9.70139 153.092 10.4963C153.903 11.2913 154.534 12.2911 154.985 13.4958C155.435 14.6923 155.661 16.0937 155.661 17.7V19.1383H139.717V15.893H150.731C150.731 15.139 150.567 14.4711 150.24 13.8892C149.912 13.3073 149.457 12.8525 148.875 12.5247C148.301 12.1887 147.633 12.0207 146.871 12.0207C146.076 12.0207 145.372 12.2051 144.757 12.5739C144.15 12.9344 143.675 13.4221 143.331 14.0367C142.987 14.6432 142.81 15.3193 142.802 16.0651V19.1506C142.802 20.0849 142.974 20.8921 143.319 21.5723C143.671 22.2525 144.167 22.777 144.806 23.1458C145.445 23.5146 146.203 23.699 147.08 23.699C147.662 23.699 148.195 23.617 148.678 23.4531C149.162 23.2892 149.576 23.0434 149.92 22.7156C150.264 22.3877 150.526 21.9862 150.707 21.5109L155.55 21.8305C155.304 22.9942 154.8 24.0104 154.038 24.8791C153.284 25.7396 152.309 26.4117 151.112 26.8952C149.924 27.3705 148.551 27.6082 146.994 27.6082Z" fill="white"/>
<path d="M164.315 16.3232V27.2394H159.078V8.35736H164.069V11.6888H164.29C164.708 10.5906 165.409 9.72188 166.393 9.08265C167.376 8.43522 168.568 8.1115 169.97 8.1115C171.281 8.1115 172.424 8.39834 173.4 8.97201C174.375 9.54568 175.133 10.3652 175.674 11.4306C176.215 12.4878 176.485 13.7499 176.485 15.2168V27.2394H171.248V16.1511C171.256 14.9956 170.961 14.0941 170.363 13.4467C169.765 12.791 168.941 12.4632 167.892 12.4632C167.187 12.4632 166.565 12.6148 166.024 12.9181C165.491 13.2213 165.073 13.6638 164.77 14.2457C164.475 14.8194 164.323 15.5119 164.315 16.3232Z" fill="white"/>
<path d="M190.656 8.35736V12.2911H179.285V8.35736H190.656ZM181.866 3.83354H187.103V21.4371C187.103 21.9206 187.177 22.2976 187.324 22.568C187.472 22.8303 187.677 23.0147 187.939 23.1212C188.209 23.2278 188.521 23.281 188.873 23.281C189.119 23.281 189.365 23.2606 189.611 23.2196C189.857 23.1704 190.045 23.1335 190.176 23.1089L191 27.0058C190.738 27.0878 190.369 27.182 189.894 27.2885C189.418 27.4033 188.841 27.4729 188.16 27.4975C186.898 27.5467 185.792 27.3787 184.841 26.9935C183.899 26.6083 183.165 26.0101 182.641 25.1987C182.116 24.3874 181.858 23.363 181.866 22.1255V3.83354Z" fill="white"/>
</svg>
